<svg xmlns="http://www.w3.org/2000/svg" viewBox="0 0 700 230" role="img" aria-label="Rezistorul: tensiunea și curentul sunt în fază" font-family="IBM Plex Sans, Arial, sans-serif" font-size="13" fill="#222" stroke-linecap="round" stroke-linejoin="round"><title>Rezistorul: tensiunea și curentul sunt în fază</title><circle cx="70" cy="115" r="14" fill="none" stroke="#222" stroke-width="2"/><path d="M62.0,115.0 L62.1,114.9 L62.1,114.7 L62.2,114.6 L62.3,114.5 L62.3,114.3 L62.4,114.2 L62.5,114.1 L62.5,114.0 L62.6,113.8 L62.7,113.7 L62.7,113.6 L62.8,113.5 L62.9,113.3 L62.9,113.2 L63.0,113.1 L63.1,113.0 L63.1,112.8 L63.2,112.7 L63.3,112.6 L63.3,112.5 L63.4,112.4 L63.5,112.3 L63.5,112.2 L63.6,112.1 L63.7,112.0 L63.7,111.9 L63.8,111.8 L63.9,111.7 L63.9,111.6 L64.0,111.5 L64.1,111.4 L64.1,111.3 L64.2,111.2 L64.3,111.1 L64.3,111.0 L64.4,111.0 L64.5,110.9 L64.5,110.8 L64.6,110.7 L64.7,110.7 L64.7,110.6 L64.8,110.5 L64.9,110.5 L64.9,110.4 L65.0,110.4 L65.1,110.3 L65.1,110.3 L65.2,110.2 L65.3,110.2 L65.3,110.2 L65.4,110.1 L65.5,110.1 L65.5,110.1 L65.6,110.1 L65.7,110.0 L65.7,110.0 L65.8,110.0 L65.9,110.0 L65.9,110.0 L66.0,110.0 L66.1,110.0 L66.1,110.0 L66.2,110.0 L66.3,110.0 L66.3,110.0 L66.4,110.1 L66.5,110.1 L66.5,110.1 L66.6,110.1 L66.7,110.2 L66.7,110.2 L66.8,110.2 L66.9,110.3 L66.9,110.3 L67.0,110.4 L67.1,110.4 L67.1,110.5 L67.2,110.5 L67.3,110.6 L67.3,110.7 L67.4,110.7 L67.5,110.8 L67.5,110.9 L67.6,111.0 L67.7,111.0 L67.7,111.1 L67.8,111.2 L67.9,111.3 L67.9,111.4 L68.0,111.5 L68.1,111.6 L68.1,111.7 L68.2,111.8 L68.3,111.9 L68.3,112.0 L68.4,112.1 L68.5,112.2 L68.5,112.3 L68.6,112.4 L68.7,112.5 L68.7,112.6 L68.8,112.7 L68.9,112.8 L68.9,113.0 L69.0,113.1 L69.1,113.2 L69.1,113.3 L69.2,113.5 L69.3,113.6 L69.3,113.7 L69.4,113.8 L69.5,114.0 L69.5,114.1 L69.6,114.2 L69.7,114.3 L69.7,114.5 L69.8,114.6 L69.9,114.7 L69.9,114.9 L70.0,115.0 L70.1,115.1 L70.1,115.3 L70.2,115.4 L70.3,115.5 L70.3,115.7 L70.4,115.8 L70.5,115.9 L70.5,116.0 L70.6,116.2 L70.7,116.3 L70.7,116.4 L70.8,116.5 L70.9,116.7 L70.9,116.8 L71.0,116.9 L71.1,117.0 L71.1,117.2 L71.2,117.3 L71.3,117.4 L71.3,117.5 L71.4,117.6 L71.5,117.7 L71.5,117.8 L71.6,117.9 L71.7,118.0 L71.7,118.1 L71.8,118.2 L71.9,118.3 L71.9,118.4 L72.0,118.5 L72.1,118.6 L72.1,118.7 L72.2,118.8 L72.3,118.9 L72.3,119.0 L72.4,119.0 L72.5,119.1 L72.5,119.2 L72.6,119.3 L72.7,119.3 L72.7,119.4 L72.8,119.5 L72.9,119.5 L72.9,119.6 L73.0,119.6 L73.1,119.7 L73.1,119.7 L73.2,119.8 L73.3,119.8 L73.3,119.8 L73.4,119.9 L73.5,119.9 L73.5,119.9 L73.6,119.9 L73.7,120.0 L73.7,120.0 L73.8,120.0 L73.9,120.0 L73.9,120.0 L74.0,120.0 L74.1,120.0 L74.1,120.0 L74.2,120.0 L74.3,120.0 L74.3,120.0 L74.4,119.9 L74.5,119.9 L74.5,119.9 L74.6,119.9 L74.7,119.8 L74.7,119.8 L74.8,119.8 L74.9,119.7 L74.9,119.7 L75.0,119.6 L75.1,119.6 L75.1,119.5 L75.2,119.5 L75.3,119.4 L75.3,119.3 L75.4,119.3 L75.5,119.2 L75.5,119.1 L75.6,119.0 L75.7,119.0 L75.7,118.9 L75.8,118.8 L75.9,118.7 L75.9,118.6 L76.0,118.5 L76.1,118.4 L76.1,118.3 L76.2,118.2 L76.3,118.1 L76.3,118.0 L76.4,117.9 L76.5,117.8 L76.5,117.7 L76.6,117.6 L76.7,117.5 L76.7,117.4 L76.8,117.3 L76.9,117.2 L76.9,117.0 L77.0,116.9 L77.1,116.8 L77.1,116.7 L77.2,116.5 L77.3,116.4 L77.3,116.3 L77.4,116.2 L77.5,116.0 L77.5,115.9 L77.6,115.8 L77.7,115.7 L77.7,115.5 L77.8,115.4 L77.9,115.3 L77.9,115.1 L78.0,115.0" fill="none" stroke="#222" stroke-width="1.8"/><line x1="70.0" y1="91.0" x2="70.0" y2="101.0" stroke="#222" stroke-width="1.5" fill="none"/><line x1="70.0" y1="129.0" x2="70.0" y2="139.0" stroke="#222" stroke-width="1.5" fill="none"/><line x1="70.0" y1="91.0" x2="70.0" y2="40.0" stroke="#222" stroke-width="1.5" fill="none"/><line x1="70.0" y1="40.0" x2="170.0" y2="40.0" stroke="#222" stroke-width="1.5" fill="none"/><line x1="70.0" y1="139.0" x2="70.0" y2="190.0" stroke="#222" stroke-width="1.5" fill="none"/><line x1="70.0" y1="190.0" x2="170.0" y2="190.0" stroke="#222" stroke-width="1.5" fill="none"/><line x1="170.0" y1="40.0" x2="170.0" y2="85.0" stroke="#222" stroke-width="1.5" fill="none"/><rect x="162" y="85" width="16" height="60" fill="none" stroke="#222" stroke-width="2"/><line x1="170.0" y1="145.0" x2="170.0" y2="190.0" stroke="#222" stroke-width="1.5" fill="none"/><text x="190.0" y="120.0" text-anchor="start" font-size="15" fill="#222" font-weight="bold" stroke="none" >R</text><text x="40.0" y="119.0" text-anchor="middle" font-size="14" fill="#c0392b" font-weight="bold" stroke="none" >u</text><line x1="26.0" y1="95.0" x2="26.0" y2="135.0" stroke="#c0392b" stroke-width="1.5" fill="none"/><polygon points="26.0,135.0 23.4,129.6 28.6,129.6" fill="#c0392b" stroke="none"/><line x1="120.0" y1="30.0" x2="150.0" y2="30.0" stroke="#1f5fbf" stroke-width="1.5" fill="none"/><polygon points="150.0,30.0 144.6,32.6 144.6,27.4" fill="#1f5fbf" stroke="none"/><text x="135.0" y="22.0" text-anchor="middle" font-size="14" fill="#1f5fbf" font-weight="bold" stroke="none" >i</text><line x1="235.0" y1="115.0" x2="512.0" y2="115.0" stroke="#222" stroke-width="1.2" fill="none"/><polygon points="512.0,115.0 505.7,118.0 505.7,112.0" fill="#222" stroke="none"/><line x1="240.0" y1="190.0" x2="240.0" y2="28.0" stroke="#222" stroke-width="1.2" fill="none"/><polygon points="240.0,28.0 243.0,34.3 237.0,34.3" fill="#222" stroke="none"/><text x="514.0" y="129.0" text-anchor="end" font-size="12" fill="#222" font-weight="normal" stroke="none" >t</text><path d="M240.0,115.0 L241.1,113.3 L242.2,111.6 L243.2,109.9 L244.3,108.2 L245.4,106.5 L246.5,104.8 L247.6,103.2 L248.7,101.5 L249.8,99.8 L250.8,98.2 L251.9,96.5 L253.0,94.9 L254.1,93.3 L255.2,91.7 L256.2,90.1 L257.3,88.6 L258.4,87.0 L259.5,85.5 L260.6,84.0 L261.7,82.5 L262.8,81.0 L263.8,79.6 L264.9,78.2 L266.0,76.8 L267.1,75.4 L268.2,74.1 L269.2,72.8 L270.3,71.5 L271.4,70.3 L272.5,69.0 L273.6,67.9 L274.7,66.7 L275.8,65.6 L276.8,64.5 L277.9,63.4 L279.0,62.4 L280.1,61.4 L281.2,60.5 L282.2,59.6 L283.3,58.7 L284.4,57.9 L285.5,57.1 L286.6,56.3 L287.7,55.6 L288.8,54.9 L289.8,54.3 L290.9,53.7 L292.0,53.2 L293.1,52.7 L294.2,52.2 L295.2,51.8 L296.3,51.4 L297.4,51.1 L298.5,50.8 L299.6,50.6 L300.7,50.4 L301.8,50.2 L302.8,50.1 L303.9,50.0 L305.0,50.0 L306.1,50.0 L307.2,50.1 L308.2,50.2 L309.3,50.4 L310.4,50.6 L311.5,50.8 L312.6,51.1 L313.7,51.4 L314.8,51.8 L315.8,52.2 L316.9,52.7 L318.0,53.2 L319.1,53.7 L320.2,54.3 L321.2,54.9 L322.3,55.6 L323.4,56.3 L324.5,57.1 L325.6,57.9 L326.7,58.7 L327.8,59.6 L328.8,60.5 L329.9,61.4 L331.0,62.4 L332.1,63.4 L333.2,64.5 L334.2,65.6 L335.3,66.7 L336.4,67.9 L337.5,69.0 L338.6,70.3 L339.7,71.5 L340.8,72.8 L341.8,74.1 L342.9,75.4 L344.0,76.8 L345.1,78.2 L346.2,79.6 L347.2,81.0 L348.3,82.5 L349.4,84.0 L350.5,85.5 L351.6,87.0 L352.7,88.6 L353.8,90.1 L354.8,91.7 L355.9,93.3 L357.0,94.9 L358.1,96.5 L359.2,98.2 L360.2,99.8 L361.3,101.5 L362.4,103.2 L363.5,104.8 L364.6,106.5 L365.7,108.2 L366.8,109.9 L367.8,111.6 L368.9,113.3 L370.0,115.0 L371.1,116.7 L372.2,118.4 L373.2,120.1 L374.3,121.8 L375.4,123.5 L376.5,125.2 L377.6,126.8 L378.7,128.5 L379.8,130.2 L380.8,131.8 L381.9,133.5 L383.0,135.1 L384.1,136.7 L385.2,138.3 L386.2,139.9 L387.3,141.4 L388.4,143.0 L389.5,144.5 L390.6,146.0 L391.7,147.5 L392.8,149.0 L393.8,150.4 L394.9,151.8 L396.0,153.2 L397.1,154.6 L398.2,155.9 L399.2,157.2 L400.3,158.5 L401.4,159.7 L402.5,161.0 L403.6,162.1 L404.7,163.3 L405.8,164.4 L406.8,165.5 L407.9,166.6 L409.0,167.6 L410.1,168.6 L411.2,169.5 L412.2,170.4 L413.3,171.3 L414.4,172.1 L415.5,172.9 L416.6,173.7 L417.7,174.4 L418.8,175.1 L419.8,175.7 L420.9,176.3 L422.0,176.8 L423.1,177.3 L424.2,177.8 L425.2,178.2 L426.3,178.6 L427.4,178.9 L428.5,179.2 L429.6,179.4 L430.7,179.6 L431.8,179.8 L432.8,179.9 L433.9,180.0 L435.0,180.0 L436.1,180.0 L437.2,179.9 L438.2,179.8 L439.3,179.6 L440.4,179.4 L441.5,179.2 L442.6,178.9 L443.7,178.6 L444.8,178.2 L445.8,177.8 L446.9,177.3 L448.0,176.8 L449.1,176.3 L450.2,175.7 L451.2,175.1 L452.3,174.4 L453.4,173.7 L454.5,172.9 L455.6,172.1 L456.7,171.3 L457.8,170.4 L458.8,169.5 L459.9,168.6 L461.0,167.6 L462.1,166.6 L463.2,165.5 L464.2,164.4 L465.3,163.3 L466.4,162.1 L467.5,161.0 L468.6,159.7 L469.7,158.5 L470.8,157.2 L471.8,155.9 L472.9,154.6 L474.0,153.2 L475.1,151.8 L476.2,150.4 L477.2,149.0 L478.3,147.5 L479.4,146.0 L480.5,144.5 L481.6,143.0 L482.7,141.4 L483.8,139.9 L484.8,138.3 L485.9,136.7 L487.0,135.1 L488.1,133.5 L489.2,131.8 L490.2,130.2 L491.3,128.5 L492.4,126.8 L493.5,125.2 L494.6,123.5 L495.7,121.8 L496.8,120.1 L497.8,118.4 L498.9,116.7 L500.0,115.0" fill="none" stroke="#c0392b" stroke-width="3"/><path d="M240.0,115.0 L241.1,113.9 L242.2,112.8 L243.2,111.7 L244.3,110.6 L245.4,109.5 L246.5,108.4 L247.6,107.3 L248.7,106.2 L249.8,105.1 L250.8,104.1 L251.9,103.0 L253.0,101.9 L254.1,100.9 L255.2,99.9 L256.2,98.8 L257.3,97.8 L258.4,96.8 L259.5,95.8 L260.6,94.8 L261.7,93.9 L262.8,92.9 L263.8,92.0 L264.9,91.1 L266.0,90.2 L267.1,89.3 L268.2,88.4 L269.2,87.6 L270.3,86.7 L271.4,85.9 L272.5,85.1 L273.6,84.4 L274.7,83.6 L275.8,82.9 L276.8,82.2 L277.9,81.5 L279.0,80.8 L280.1,80.2 L281.2,79.6 L282.2,79.0 L283.3,78.4 L284.4,77.9 L285.5,77.4 L286.6,76.9 L287.7,76.4 L288.8,76.0 L289.8,75.6 L290.9,75.2 L292.0,74.8 L293.1,74.5 L294.2,74.2 L295.2,73.9 L296.3,73.7 L297.4,73.5 L298.5,73.3 L299.6,73.1 L300.7,73.0 L301.8,72.9 L302.8,72.8 L303.9,72.8 L305.0,72.8 L306.1,72.8 L307.2,72.8 L308.2,72.9 L309.3,73.0 L310.4,73.1 L311.5,73.3 L312.6,73.5 L313.7,73.7 L314.8,73.9 L315.8,74.2 L316.9,74.5 L318.0,74.8 L319.1,75.2 L320.2,75.6 L321.2,76.0 L322.3,76.4 L323.4,76.9 L324.5,77.4 L325.6,77.9 L326.7,78.4 L327.8,79.0 L328.8,79.6 L329.9,80.2 L331.0,80.8 L332.1,81.5 L333.2,82.2 L334.2,82.9 L335.3,83.6 L336.4,84.4 L337.5,85.1 L338.6,85.9 L339.7,86.7 L340.8,87.6 L341.8,88.4 L342.9,89.3 L344.0,90.2 L345.1,91.1 L346.2,92.0 L347.2,92.9 L348.3,93.9 L349.4,94.8 L350.5,95.8 L351.6,96.8 L352.7,97.8 L353.8,98.8 L354.8,99.9 L355.9,100.9 L357.0,101.9 L358.1,103.0 L359.2,104.1 L360.2,105.1 L361.3,106.2 L362.4,107.3 L363.5,108.4 L364.6,109.5 L365.7,110.6 L366.8,111.7 L367.8,112.8 L368.9,113.9 L370.0,115.0 L371.1,116.1 L372.2,117.2 L373.2,118.3 L374.3,119.4 L375.4,120.5 L376.5,121.6 L377.6,122.7 L378.7,123.8 L379.8,124.9 L380.8,125.9 L381.9,127.0 L383.0,128.1 L384.1,129.1 L385.2,130.1 L386.2,131.2 L387.3,132.2 L388.4,133.2 L389.5,134.2 L390.6,135.2 L391.7,136.1 L392.8,137.1 L393.8,138.0 L394.9,138.9 L396.0,139.8 L397.1,140.7 L398.2,141.6 L399.2,142.4 L400.3,143.3 L401.4,144.1 L402.5,144.9 L403.6,145.6 L404.7,146.4 L405.8,147.1 L406.8,147.8 L407.9,148.5 L409.0,149.2 L410.1,149.8 L411.2,150.4 L412.2,151.0 L413.3,151.6 L414.4,152.1 L415.5,152.6 L416.6,153.1 L417.7,153.6 L418.8,154.0 L419.8,154.4 L420.9,154.8 L422.0,155.2 L423.1,155.5 L424.2,155.8 L425.2,156.1 L426.3,156.3 L427.4,156.5 L428.5,156.7 L429.6,156.9 L430.7,157.0 L431.8,157.1 L432.8,157.2 L433.9,157.2 L435.0,157.2 L436.1,157.2 L437.2,157.2 L438.2,157.1 L439.3,157.0 L440.4,156.9 L441.5,156.7 L442.6,156.5 L443.7,156.3 L444.8,156.1 L445.8,155.8 L446.9,155.5 L448.0,155.2 L449.1,154.8 L450.2,154.4 L451.2,154.0 L452.3,153.6 L453.4,153.1 L454.5,152.6 L455.6,152.1 L456.7,151.6 L457.8,151.0 L458.8,150.4 L459.9,149.8 L461.0,149.2 L462.1,148.5 L463.2,147.8 L464.2,147.1 L465.3,146.4 L466.4,145.6 L467.5,144.9 L468.6,144.1 L469.7,143.3 L470.8,142.4 L471.8,141.6 L472.9,140.7 L474.0,139.8 L475.1,138.9 L476.2,138.0 L477.2,137.1 L478.3,136.1 L479.4,135.2 L480.5,134.2 L481.6,133.2 L482.7,132.2 L483.8,131.2 L484.8,130.1 L485.9,129.1 L487.0,128.1 L488.1,127.0 L489.2,125.9 L490.2,124.9 L491.3,123.8 L492.4,122.7 L493.5,121.6 L494.6,120.5 L495.7,119.4 L496.8,118.3 L497.8,117.2 L498.9,116.1 L500.0,115.0" fill="none" stroke="#1f5fbf" stroke-width="3"/><text x="248.0" y="30.0" text-anchor="start" font-size="14" fill="#c0392b" font-weight="bold" stroke="none" >u</text><text x="264.0" y="30.0" text-anchor="start" font-size="14" fill="#1f5fbf" font-weight="bold" stroke="none" >i</text><text x="370.0" y="210.0" text-anchor="middle" font-size="12" fill="#222" font-weight="bold" stroke="none" >φ = 0°  →  i în fază cu u</text><line x1="560.0" y1="115.0" x2="680.0" y2="115.0" stroke="#9a9a9a" stroke-width="1" fill="none"/><line x1="620.0" y1="55.0" x2="620.0" y2="175.0" stroke="#9a9a9a" stroke-width="1" fill="none"/><line x1="620.0" y1="115.0" x2="672.0" y2="115.0" stroke="#c0392b" stroke-width="2.5" fill="none"/><polygon points="672.0,115.0 663.9,118.9 663.9,111.1" fill="#c0392b" stroke="none"/><text x="686.0" y="119.0" text-anchor="middle" font-size="13" fill="#c0392b" font-weight="bold" stroke="none" >U</text><line x1="620.0" y1="115.0" x2="654.0" y2="115.0" stroke="#1f5fbf" stroke-width="2.5" fill="none"/><polygon points="654.0,115.0 645.9,118.9 645.9,111.1" fill="#1f5fbf" stroke="none"/><text x="686.0" y="119.0" text-anchor="middle" font-size="13" fill="#1f5fbf" font-weight="bold" stroke="none" >I</text></svg>