<svg xmlns="http://www.w3.org/2000/svg" viewBox="0 0 680 300" role="img" aria-label="Receptor trifazat în conexiune stea" font-family="IBM Plex Sans, Arial, sans-serif" font-size="13" fill="#222" stroke-linecap="round" stroke-linejoin="round"><title>Receptor trifazat în conexiune stea</title><line x1="40.0" y1="40.0" x2="640.0" y2="40.0" stroke="#8b5a2b" stroke-width="3" fill="none"/><text x="28.0" y="44.0" text-anchor="end" font-size="13" fill="#8b5a2b" font-weight="bold" stroke="none" >L1</text><line x1="40.0" y1="70.0" x2="640.0" y2="70.0" stroke="#3a3a3a" stroke-width="3" fill="none"/><text x="28.0" y="74.0" text-anchor="end" font-size="13" fill="#3a3a3a" font-weight="bold" stroke="none" >L2</text><line x1="40.0" y1="100.0" x2="640.0" y2="100.0" stroke="#8a8a8a" stroke-width="3" fill="none"/><text x="28.0" y="104.0" text-anchor="end" font-size="13" fill="#8a8a8a" font-weight="bold" stroke="none" >L3</text><line x1="40.0" y1="130.0" x2="640.0" y2="130.0" stroke="#2563eb" stroke-width="3" fill="none"/><text x="28.0" y="134.0" text-anchor="end" font-size="13" fill="#2563eb" font-weight="bold" stroke="none" >N</text><circle cx="330.0" cy="40.0" r="4" fill="#8b5a2b" stroke="none"/><line x1="330.0" y1="40.0" x2="330.0" y2="155.0" stroke="#222" stroke-width="1.5" fill="none"/><rect x="322" y="155" width="16" height="50" fill="none" stroke="#222" stroke-width="2"/><text x="344.0" y="184.0" text-anchor="start" font-size="13" fill="#222" font-weight="bold" stroke="none" >Z1</text><line x1="330.0" y1="205.0" x2="330.0" y2="245.0" stroke="#222" stroke-width="1.5" fill="none"/><line x1="330.0" y1="245.0" x2="440.0" y2="245.0" stroke="#222" stroke-width="1.5" fill="none"/><circle cx="440.0" cy="70.0" r="4" fill="#3a3a3a" stroke="none"/><line x1="440.0" y1="70.0" x2="440.0" y2="155.0" stroke="#222" stroke-width="1.5" fill="none"/><rect x="432" y="155" width="16" height="50" fill="none" stroke="#222" stroke-width="2"/><text x="454.0" y="184.0" text-anchor="start" font-size="13" fill="#222" font-weight="bold" stroke="none" >Z2</text><line x1="440.0" y1="205.0" x2="440.0" y2="245.0" stroke="#222" stroke-width="1.5" fill="none"/><line x1="440.0" y1="245.0" x2="440.0" y2="245.0" stroke="#222" stroke-width="1.5" fill="none"/><circle cx="550.0" cy="100.0" r="4" fill="#8a8a8a" stroke="none"/><line x1="550.0" y1="100.0" x2="550.0" y2="155.0" stroke="#222" stroke-width="1.5" fill="none"/><rect x="542" y="155" width="16" height="50" fill="none" stroke="#222" stroke-width="2"/><text x="564.0" y="184.0" text-anchor="start" font-size="13" fill="#222" font-weight="bold" stroke="none" >Z3</text><line x1="550.0" y1="205.0" x2="550.0" y2="245.0" stroke="#222" stroke-width="1.5" fill="none"/><line x1="550.0" y1="245.0" x2="440.0" y2="245.0" stroke="#222" stroke-width="1.5" fill="none"/><circle cx="440.0" cy="245.0" r="5" fill="#222" stroke="none"/><text x="428.0" y="269.0" text-anchor="end" font-size="11" fill="#222" font-weight="normal" stroke="none" >punct neutru (nul) al receptorului</text><line x1="440.0" y1="245.0" x2="440.0" y2="282.0" stroke="#222" stroke-width="1.5" fill="none"/><line x1="440.0" y1="282.0" x2="610.0" y2="282.0" stroke="#222" stroke-width="1.5" fill="none"/><line x1="610.0" y1="282.0" x2="610.0" y2="130.0" stroke="#222" stroke-width="1.5" fill="none"/><circle cx="610.0" cy="130.0" r="4" fill="#2563eb" stroke="none"/><text x="600.0" y="276.0" text-anchor="end" font-size="11" fill="#2563eb" font-weight="normal" stroke="none" >conductorul N</text><line x1="300.0" y1="46.0" x2="300.0" y2="124.0" stroke="#c0392b" stroke-width="1.5" fill="none"/><polygon points="300.0,124.0 297.4,118.6 302.6,118.6" fill="#c0392b" stroke="none"/><text x="292.0" y="90.0" text-anchor="end" font-size="12" fill="#c0392b" font-weight="bold" stroke="none" >UF = 230 V</text><text x="292.0" y="104.0" text-anchor="end" font-size="10" fill="#222" font-weight="normal" stroke="none" >(fază – neutru)</text><line x1="200.0" y1="46.0" x2="200.0" y2="94.0" stroke="#c0392b" stroke-width="1.5" fill="none"/><polygon points="200.0,94.0 197.4,88.6 202.6,88.6" fill="#c0392b" stroke="none"/><text x="192.0" y="66.0" text-anchor="end" font-size="12" fill="#c0392b" font-weight="bold" stroke="none" >UL = 400 V</text><text x="192.0" y="80.0" text-anchor="end" font-size="10" fill="#222" font-weight="normal" stroke="none" >(între două faze)</text><line x1="345.0" y1="136.0" x2="345.0" y2="152.0" stroke="#1f5fbf" stroke-width="1.5" fill="none"/><polygon points="345.0,152.0 342.4,146.6 347.6,146.6" fill="#1f5fbf" stroke="none"/><text x="352.0" y="148.0" text-anchor="start" font-size="12" fill="#1f5fbf" font-weight="bold" stroke="none" >IL = IF</text><text x="590.0" y="175.0" text-anchor="start" font-size="12" fill="#222" font-weight="bold" stroke="none" >STEA:</text><text x="590.0" y="191.0" text-anchor="start" font-size="12" fill="#222" font-weight="bold" stroke="none" >UL = √3 · UF</text><text x="590.0" y="207.0" text-anchor="start" font-size="12" fill="#222" font-weight="bold" stroke="none" >IL = IF</text><text x="340.0" y="24.0" text-anchor="start" font-size="13" fill="#222" font-weight="bold" stroke="none" >receptor trifazat în STEA (Y)</text></svg>